PathFileType	4	(X/Y/Z)	C:\Users\°ÂÌØÂü\Desktop\20201223\Trimmed_bx_n_5_901.trc
DataRate	CameraRate	NumFrames	NumMarkers	Units	OrigDataRate	OrigDataStartFrame	OrigNumFrames
50.00	50.00	       4	43	mm	50.00	202	       402
Frame#	Time	Top.Head			R.Acromium			L.Acromium			Sternum			R.ASIS			L.ASIS			V.Sacral			R.Thigh.Upper			R.Thigh.Front			R.Thigh.Rear			R.Knee.Lat			R.Knee.Med			R.Shank.Upper			R.Shank.Front			R.Shank.Rear			R.Ankle.Lat			R.Midfoot.Lat			R.Toe.Lat			R.Toe.Tip			R.Toe.Med			R.Ankle.Med			R.Midfoot.Sup			R.Heel			L.Thigh.Upper			L.Thigh.Front			L.Thigh.Rear			L.Knee.Lat			L.Knee.Med			L.Shank.Upper			L.Shank.Front			L.Shank.Rear			L.Ankle.Lat			L.Midfoot.Lat			L.Toe.Lat			L.Toe.Tip			L.Toe.Med			L.Ankle.Med			L.Midfoot.Sup			L.Heel			origin1 front left			origin2 front right			origin 3 back right			origin 4 back leftt			
		X1	Y1	Z1	X2	Y2	Z2	X3	Y3	Z3	X4	Y4	Z4	X5	Y5	Z5	X6	Y6	Z6	X7	Y7	Z7	X8	Y8	Z8	X9	Y9	Z9	X10	Y10	Z10	X11	Y11	Z11	X12	Y12	Z12	X13	Y13	Z13	X14	Y14	Z14	X15	Y15	Z15	X16	Y16	Z16	X17	Y17	Z17	X18	Y18	Z18	X19	Y19	Z19	X20	Y20	Z20	X21	Y21	Z21	X22	Y22	Z22	X23	Y23	Z23	X24	Y24	Z24	X25	Y25	Z25	X26	Y26	Z26	X27	Y27	Z27	X28	Y28	Z28	X29	Y29	Z29	X30	Y30	Z30	X31	Y31	Z31	X32	Y32	Z32	X33	Y33	Z33	X34	Y34	Z34	X35	Y35	Z35	X36	Y36	Z36	X37	Y37	Z37	X38	Y38	Z38	X39	Y39	Z39	X40	Y40	Z40	X41	Y41	Z41	X42	Y42	Z42	X43	Y43	Z43	

202	4.020	-745.30627	237.42531	1815.61230	-666.47339	64.67403	1527.04968	-648.43604	419.28955	1539.49597	-530.08862	238.68425	1365.72729	-523.33740	111.53801	1035.45679	-501.55106	337.85410	1038.67542	-715.64850	235.42957	1053.27820	-599.08508	65.61449	832.47290	-511.52545	130.76215	810.74622	-605.56152	82.69581	723.59332	-648.44073	105.28275	604.25031	-635.56104	215.28070	565.24048	-679.50684	104.85578	539.01740	-606.66272	161.01099	525.42029	-688.60077	97.93660	487.99579	-687.00739	138.01280	212.46672	-606.68292	85.82617	163.77734	-557.81812	69.69792	161.40910	-483.26773	119.00580	157.27258	-533.54993	167.38036	163.80037	-646.28455	220.10785	221.37907	-601.39337	198.94041	171.29163	-729.11597	200.78398	170.69939	-592.56409	421.03421	856.27069	-511.14728	372.29358	814.97809	-618.98035	410.95877	743.08899	-640.04456	394.69971	608.51611	-596.65076	293.01572	575.53107	-658.05353	397.42038	561.81305	-599.62018	342.97855	535.23279	-713.30542	400.81650	500.13062	-676.87482	402.45184	215.87086	-581.60760	450.83780	163.42262	-544.70544	461.70990	157.68004	-480.54950	409.66608	165.38062	-525.06335	369.50943	176.65369	-646.05444	310.16699	208.07159	-595.74792	330.19742	170.37292	-735.10657	334.46814	160.95660	-443.85825	448.44360	146.76202	-450.40930	74.69173	143.31166	-806.27814	82.20304	140.86598	-799.69440	456.71545	144.94466	
203	4.040	-745.33960	237.71722	1815.76245	-666.82764	64.65190	1527.02368	-648.69379	419.27509	1539.52295	-530.49133	238.65636	1365.61401	-523.68542	111.46487	1035.49207	-501.81723	337.70493	1038.64441	-715.94806	235.47760	1053.21411	-599.29596	65.57561	832.49084	-511.75192	130.68356	810.77917	-605.68811	82.65295	723.60840	-648.48724	105.28381	604.23090	-635.61639	215.30927	565.28821	-679.60559	104.82945	539.04559	-606.69135	160.98494	525.43524	-688.67035	97.92564	487.98331	-687.01862	138.02422	212.45605	-606.68677	85.83476	163.78873	-557.76422	69.73505	161.44554	-483.23621	118.98333	157.27913	-533.54535	167.37372	163.80072	-646.27856	220.11031	221.36813	-601.39722	198.93866	171.31075	-729.09882	200.79022	170.69225	-592.65094	421.00119	856.20288	-511.27563	372.19574	815.03583	-619.02155	411.02356	743.05170	-640.06042	394.70251	608.50012	-596.79944	292.74518	575.46246	-658.20966	397.40546	561.79688	-599.79742	342.90070	535.19446	-713.39240	400.79727	500.14578	-676.93335	402.39316	215.79633	-581.61688	450.85052	163.43379	-544.70465	461.70914	157.70084	-480.55429	409.65823	165.38089	-525.07166	369.51682	176.65730	-646.03333	310.13403	208.11232	-595.75104	330.19333	170.37598	-735.11389	334.46893	160.93756	-443.85071	448.43881	146.75133	-450.40970	74.70631	143.29890	-806.27850	82.20204	140.86166	-799.69580	456.69644	144.93349	
204	4.060	-745.34503	238.01379	1815.91663	-667.15149	64.61655	1527.00256	-648.93469	419.25699	1539.53357	-530.89618	238.62071	1365.49182	-524.04236	111.36980	1035.51147	-502.04242	337.54230	1038.61462	-716.23242	235.53897	1053.16016	-599.55225	65.52255	832.52240	-511.99820	130.57112	810.82867	-605.83990	82.59732	723.62488	-648.54657	105.28883	604.21375	-635.67261	215.32092	565.33600	-679.72894	104.79961	539.08795	-606.72949	160.95728	525.44897	-688.77032	97.91188	487.97824	-687.03406	138.03696	212.43954	-606.69031	85.84301	163.79626	-557.72058	69.76926	161.47725	-483.20819	118.96332	157.28633	-533.53796	167.36421	163.80997	-646.26685	220.10838	221.37317	-601.40546	198.93143	171.33501	-729.07947	200.79704	170.68054	-592.69318	420.97571	856.14594	-511.36444	372.08090	815.08966	-619.00421	411.08273	743.01367	-640.05902	394.70245	608.49371	-596.99854	292.47028	575.38690	-658.29620	397.38708	561.77765	-599.93500	342.81778	535.16919	-713.44409	400.78146	500.15524	-676.97632	402.35153	215.74361	-581.62677	450.86670	163.45200	-544.70551	461.70328	157.71954	-480.55923	409.65070	165.38199	-525.07623	369.52454	176.66167	-646.01361	310.10013	208.15051	-595.75238	330.19412	170.37892	-735.11914	334.47174	160.92043	-443.84497	448.42929	146.75157	-450.41190	74.72753	143.29108	-806.28107	82.19945	140.85852	-799.69556	456.67841	144.92482	
205	4.080	-745.31335	238.30362	1816.07666	-667.44879	64.57574	1526.98450	-649.15656	419.23660	1539.52515	-531.29395	238.57469	1365.36975	-524.39484	111.26029	1035.51880	-502.22150	337.37711	1038.59326	-716.50000	235.60632	1053.11755	-599.84131	65.45741	832.56757	-512.24945	130.43791	810.89392	-606.00659	82.53245	723.64038	-648.61365	105.29713	604.20026	-635.72308	215.31673	565.38123	-679.86584	104.76813	539.13989	-606.77393	160.93051	525.46094	-688.88849	97.89656	487.97861	-687.05206	138.04956	212.41905	-606.69348	85.85033	163.80109	-557.69128	69.79812	161.50238	-483.18518	118.94674	157.29662	-533.52887	167.35336	163.82657	-646.25055	220.10385	221.39221	-601.41425	198.92120	171.36215	-729.05957	200.80382	170.66527	-592.69672	420.96072	856.10699	-511.41791	371.95883	815.13721	-618.94110	411.13239	742.98175	-640.04364	394.70084	608.49640	-597.24719	292.19168	575.30469	-658.31219	397.36987	561.75970	-600.02478	342.73666	535.16034	-713.45868	400.77469	500.15814	-676.99634	402.33621	215.72211	-581.63446	450.88217	163.47453	-544.70770	461.69016	157.73364	-480.56281	409.64453	165.38455	-525.07660	369.53119	176.66649	-646.00031	310.07285	208.17607	-595.75452	330.19934	170.37869	-735.12286	334.47556	160.90547	-443.84055	448.41525	146.76097	-450.41565	74.75214	143.29106	-806.28479	82.19585	140.85725	-799.69415	456.66290	144.92009	
